<?xml version="1.0" encoding="UTF-8" standalone="no"?>
<svg width="158px" height="37px" viewBox="0 0 158 37" version="1.1" xmlns="http://www.w3.org/2000/svg" xmlns:xlink="http://www.w3.org/1999/xlink" xmlns:sketch="http://www.bohemiancoding.com/sketch/ns">
    <!-- Generator: Sketch 3.4.2 (15855) - http://www.bohemiancoding.com/sketch -->
    <title>SJFD72 + Path + Path</title>
    <desc>Created with Sketch.</desc>
    <defs></defs>
    <g id="Page-1" stroke="none" stroke-width="1" fill="none" fill-rule="evenodd" sketch:type="MSPage">
        <g id="SJFD72-+-Path-+-Path" sketch:type="MSLayerGroup">
            <path d="M24.472,25.104 C24.472,21.744 23.272,19.2 20.584,17.52 C18.472,16.176 14.872,15.6 11.896,14.832 C8.632,14.016 7.144,13.2 7.144,10.752 C7.144,8.16 9.304,6.576 13.048,6.576 C14.488,6.576 15.544,6.768 16.36,6.96 C17.848,7.296 18.616,7.776 19.576,7.776 C21.496,7.776 22.6,6.24 22.6,4.656 C22.6,3.408 21.88,2.208 20.296,1.68 C17.896,0.864 15.352,0.576 12.52,0.576 C5.944,0.576 0.52,4.464 0.52,11.616 C0.52,15.6 2.296,17.856 4.696,19.248 C6.904,20.448 10.792,21.072 13.192,21.744 C16.84,22.752 17.896,23.712 17.896,25.824 C17.896,28.656 15.832,30.48 10.984,30.48 C9.256,30.48 7.96,30.24 6.952,30 C5.08,29.568 4.216,28.944 3.16,28.944 C1.384,28.944 0.328,30.432 0.328,32.064 C0.328,33.264 1,34.512 2.536,35.088 C5.272,36.096 8.2,36.432 11.56,36.432 C18.952,36.432 24.472,32.688 24.472,25.104 L24.472,25.104 Z M45.496,23.088 L45.496,3.888 C45.496,2.064 44.008,0.576 42.184,0.576 C40.36,0.576 38.872,2.064 38.872,3.888 L38.872,23.088 C38.872,28.272 37.576,30.24 33.208,30.24 C32.44,30.24 31.72,30.192 31.048,30.096 C30.328,30.048 29.944,29.952 29.512,29.952 C27.544,29.952 26.488,31.344 26.488,33.12 C26.488,34.512 27.304,35.856 29.128,36.144 C30.376,36.336 31.72,36.432 33.208,36.432 C42.376,36.432 45.496,30.816 45.496,23.088 L45.496,23.088 Z M73.24,4.176 C73.24,2.448 71.848,1.008 70.072,1.008 L55.48,1.008 C53.752,1.008 52.36,2.448 52.36,4.176 L52.36,33.12 C52.36,34.944 53.8,36.432 55.624,36.432 C57.496,36.432 58.936,34.944 58.936,33.12 L58.936,21.552 L68.152,21.552 C69.832,21.552 71.176,20.208 71.176,18.528 C71.176,16.848 69.832,15.456 68.152,15.456 L58.936,15.456 L58.936,7.344 L70.072,7.344 C71.848,7.344 73.24,5.904 73.24,4.176 L73.24,4.176 Z M102.952,23.04 L102.952,14.016 C102.952,8.736 101.272,1.008 90.616,1.008 L81.496,1.008 C79.672,1.008 78.232,2.496 78.232,4.32 L78.232,32.688 C78.232,34.512 79.672,36 81.496,36 L90.616,36 C101.272,36 102.952,28.368 102.952,23.04 L102.952,23.04 Z M96.376,23.04 C96.376,27.12 95.128,29.808 90.136,29.808 L84.808,29.808 L84.808,7.344 L90.136,7.344 C95.128,7.344 96.376,10.032 96.376,14.112 L96.376,23.04 Z" id="SJFD72" fill="#FB8C00" sketch:type="MSShapeGroup"></path>
            <path d="M130.792,4.176 C130.792,2.448 129.352,1.008 127.624,1.008 L110.776,1.008 C109.048,1.008 107.608,2.448 107.608,4.176 C107.608,5.904 109.048,7.296 110.776,7.296 L123.112,7.296 L113.272,31.92 C112.552,33.648 113.464,35.568 115.144,36.192 C116.872,36.864 118.792,36 119.416,34.32 L130.408,5.904 C130.6,5.376 130.792,4.704 130.792,4.176 L130.792,4.176 Z" id="Path" fill="#E65000" sketch:type="MSShapeGroup"></path>
            <path d="M157.192,32.832 C157.192,31.104 155.8,29.712 154.024,29.712 L142.36,29.712 C145.048,22.656 157.192,21.12 157.192,11.04 C157.192,6.288 154.216,0.576 146.296,0.576 C142.408,0.576 139.096,1.632 136.504,3.696 C135.592,4.416 135.352,5.28 135.352,6.144 C135.352,7.92 136.84,9.264 138.472,9.264 C139.72,9.264 140.392,8.448 141.784,7.68 C142.84,7.056 144.136,6.576 146.056,6.576 C149.32,6.576 150.568,8.832 150.568,11.04 C150.568,15.552 145,17.808 140.584,21.648 C137.512,24.336 135.16,27.552 135.16,32.832 C135.16,34.704 136.408,36 138.328,36 L154.024,36 C155.8,36 157.192,34.608 157.192,32.832 L157.192,32.832 Z" id="Path" fill="#E65000" sketch:type="MSShapeGroup"></path>
        </g>
    </g>
</svg>